<?xml version="1.0" encoding="utf-8"?>
<!-- Generator: Adobe Illustrator 16.0.3, SVG Export Plug-In . SVG Version: 6.00 Build 0)  -->
<!DOCTYPE svg PUBLIC "-//W3C//DTD SVG 1.1//EN" "http://www.w3.org/Graphics/SVG/1.1/DTD/svg11.dtd">
<svg version="1.1" id="圖層_1" xmlns="http://www.w3.org/2000/svg" xmlns:xlink="http://www.w3.org/1999/xlink" x="0px" y="0px"
	 width="636.264px" height="281px" viewBox="0 0 636.264 281" enable-background="new 0 0 636.264 281" xml:space="preserve">
<g>
	<g>
		<path fill="#FF5501" d="M385.84,116.481c1.687-0.364,2.131-0.301,3.066-1.215v-0.122c-5.252-2.915-10.506-5.832-15.758-8.747
			c-0.765,3.82-2.412,7.609-3.765,11.056c-3.434,8.747-6.969,16.775-11.436,24.421c-2.287,3.914-5.379,10.019-8.926,12.758
			c2.834,5.103,6.229,13.244,7.67,19.074h0.141c2.098-1.771,6.326-7.874,7.25-10.449c0.141-0.081,0.277-0.161,0.418-0.241
			c-0.045,20.004-0.092,40.014-0.141,60.019c4.928-0.729,9.854-1.459,14.782-2.188v-79.699c1.888-0.229,2.15-0.899,2.929-2.065
			c-1.396-0.567-2.789-1.135-4.183-1.702C379.42,130.486,384.52,123.846,385.84,116.481z M340.72,186.705
			c0.604-2.227,1.208-4.455,1.813-6.682c0.976-4.98,1.952-9.963,2.929-14.943c0.604-5.508,1.209-11.018,1.813-16.523
			c0.594-0.482,2.508-0.166,3.627-0.121V135.07c-5.393-0.567-10.785-1.134-16.177-1.701c-0.354-0.251-0.065-2.377,0.14-3.159
			c0.464-3.563,0.93-7.128,1.395-10.691c0.692-0.209,1.398-0.196,1.952-0.85c0.047-0.244,0.092-0.486,0.14-0.73
			c-4.229-1.74-8.46-3.482-12.688-5.223c-0.14,10.308-2.229,22.81-4.741,31.709c-1.143,4.05-1.432,8.831-3.625,12.149v0.244
			c-0.047-0.567-0.093-1.135-0.141-1.701c-5.438-0.162-10.876-0.324-16.314-0.485v-2.674c4.927,0.162,9.855,0.323,14.782,0.485
			V140.78c1.859,0.121,3.718,0.244,5.577,0.365c-0.045-3.726-0.093-7.452-0.14-11.177c-1.813-0.203-3.626-0.405-5.438-0.607v-11.664
			c-4.927-0.688-9.855-1.376-14.782-2.065c-0.097-4.925,0.918-2.451,2.511-4.981v-0.485c-4.834-1.094-9.668-2.188-14.501-3.281
			h-0.14v6.926c-5.484-0.77-10.97-1.54-16.455-2.309v13.122c-2.325-0.203-4.649-0.405-6.973-0.608
			c-0.046,4.293-0.092,8.586-0.14,12.879v0.121c2.323,0.203,4.648,0.405,6.972,0.608c0.048,4.414,0.094,8.829,0.141,13.242
			c5.438,0.203,10.877,0.404,16.315,0.607c0.047,0.041,0.092,0.082,0.14,0.121v2.553c-6.182-0.162-12.365-0.326-18.547-0.487v25.149
			c4.74-0.162,9.483-0.324,14.223-0.484c-0.557,1.174-1.115,2.349-1.672,3.521c-6.042,0.324-12.087,0.648-18.128,0.973
			c1.161,4.939,2.324,9.883,3.486,14.822c1.35-0.134,1.951-0.896,2.231-1.943c1.952-0.203,3.904-0.404,5.856-0.606
			c-1.533,2.874-3.067,5.75-4.602,8.625c4.183,0.729,8.368,1.46,12.551,2.188c0.093-0.203,0.186-0.405,0.278-0.608
			c0.837,0.244,1.674,0.487,2.51,0.729c-2.333,2.054-14.071,5.359-18.406,5.588c-0.047,0.041-0.093,0.082-0.139,0.123
			c2.362,3.291,5.292,8.281,5.438,13.121c6.415-0.797,22.818-9.074,26.077-12.758c4.071,0.867,6.357,4.586,10.041,5.59
			c2.138-3.119,4.274-6.237,6.414-9.355c0.139-0.081,0.277-0.162,0.418-0.242c1.519,2.6,3.597,5.715,4.184,8.868
			c0.093,0.04,0.187,0.081,0.278,0.122c4.027-5.297,10.711-9.419,13.107-16.16h0.141c1.161,1.863,2.324,3.727,3.484,5.59
			c1.854,2.459,4.321,4.391,6.276,6.682c0.14,0.041,0.278,0.082,0.418,0.123c2.109-4.569,4.289-8.692,6.693-12.758
			C347.411,198.072,342.048,191.273,340.72,186.705z M300.837,125.958c1.162,0.122,2.325,0.243,3.486,0.365
			c0.047,0.891,0.094,1.781,0.139,2.673c-1.208-0.082-2.417-0.163-3.625-0.244V125.958z M300.837,138.715
			c1.162,0.082,2.325,0.162,3.486,0.243c0.047,0.892,0.094,1.782,0.139,2.673c-1.208-0.04-2.417-0.08-3.625-0.121V138.715z
			 M288.706,167.875c-1.859,0.04-3.719,0.08-5.578,0.12v-3.401h5.438c0.047,1.053,0.092,2.106,0.14,3.158V167.875z M288.566,140.659
			c-1.208-0.082-2.417-0.162-3.625-0.243v-2.794c0.046-0.041,0.093-0.081,0.14-0.122c1.162,0.081,2.324,0.162,3.486,0.243
			c0.047,0.041,0.092,0.081,0.14,0.122C288.658,138.796,288.613,139.728,288.566,140.659z M288.706,127.416
			c-1.255-0.121-2.51-0.243-3.765-0.364c0.046-0.972,0.093-1.944,0.14-2.916c1.162,0.121,2.324,0.242,3.486,0.364
			c0.047,0.04,0.092,0.081,0.14,0.122L288.706,127.416L288.706,127.416z M300.837,164.594h5.16v3.158
			c-1.72,0.041-3.439,0.081-5.16,0.123V164.594z M300.698,192.294c-0.791,1.499-1.582,2.998-2.371,4.495
			c-2.648-0.932-5.299-1.863-7.948-2.793c0.046-0.163,0.093-0.324,0.14-0.486c1.276-1.063,7.189-0.658,9.203-1.337h0.978
			L300.698,192.294L300.698,192.294z M327.192,190.837c-3.146,5.474-6.762,10.699-12.133,14.214
			c-2.044-1.094-4.089-2.188-6.135-3.279c0.697-1.498,1.396-2.996,2.091-4.496c0.791-2.268,1.581-4.535,2.371-6.803
			c2.417-0.365,4.834-0.729,7.251-1.094c0.778-0.758,0.6-8.203,0.559-9.963c-8.273,0.525-16.548,1.055-24.821,1.579l0.976-2.308
			c4.902-1.604,13.325-1.64,19.8-1.58v-9.355c1.769,1.294,3.979,4.941,4.603,7.047c0.093,0.041,0.188,0.082,0.279,0.122
			c0.836-1.661,1.673-3.321,2.51-4.981c0.093-0.039,0.187-0.08,0.279-0.121c0.93,4.414,1.858,8.828,2.788,13.242
			c0.465,1.5,0.93,2.998,1.395,4.496C328.401,188.648,327.797,189.743,327.192,190.837z M335.001,167.51h-0.139
			c-1.496-6.264-2.665-13.24-3.068-20.048c1.859,0.082,3.72,0.163,5.578,0.243C337.131,154.609,335.302,161.141,335.001,167.51z
			 M554.821,139.93c-0.271-1.811,5.127-12.533,6.135-15.308c0.559-1.661,1.113-3.321,1.674-4.982c0,0,1.695,0.251,2.789-0.729
			c0.047-0.121,0.092-0.242,0.139-0.364c-5.252-2.956-10.504-5.913-15.756-8.868c-0.838,2.55-1.674,5.103-2.512,7.653
			c-2.08,5.723-4.455,11.397-7.111,16.767c-3.004,6.073-6.432,12.274-10.459,17.616c-1.672,2.064-3.346,4.133-5.02,6.196
			c-0.5,0.849,1.588,3.67,2.094,4.737c1.705,3.629,5.23,10.213,5.715,14.095h0.139c3.832-2.788,5.813-8.134,8.646-11.784
			c0.049-0.082,0.094-0.163,0.139-0.244c0.047,19.275,0.097,38.557,0.142,57.833c4.787-0.688,9.575-1.378,14.36-2.065
			c0.047-25.592,0.097-51.193,0.144-76.785c1.592-0.207,2.569-0.893,2.787-2.309C557.516,140.902,556.167,140.416,554.821,139.93z
			 M440.891,110.406c0.56,33.368,1.115,66.747,1.675,100.112c4.508-0.525,9.02-1.053,13.526-1.578v-10.937
			c6.043-0.565,12.086-1.133,18.129-1.698c-0.047-27.133-0.094-54.271-0.139-81.404C463.02,113.403,451.956,111.904,440.891,110.406
			z M455.395,128.752c1.953,0.162,3.904,0.324,5.857,0.486c0.047,6.277,0.094,12.556,0.139,18.833
			c-1.952-0.082-3.903-0.162-5.854-0.243C455.489,141.471,455.442,135.109,455.395,128.752z M455.954,182.695
			c-0.096-6.438-0.188-12.879-0.279-19.317h5.855c0.047,6.317,0.094,12.638,0.141,18.954
			C459.764,182.453,457.858,182.575,455.954,182.695z M505.458,137.743c4.691,0.323,9.389,0.648,14.082,0.972
			c0.096-4.333,0.188-8.666,0.279-12.999c-4.693-0.567-9.392-1.135-14.084-1.702c0.047-2.551,0.094-5.103,0.141-7.654
			c1.297-0.244,1.787-0.594,2.23-1.579c-0.218-0.762-11.767-3.434-13.666-3.644v11.42c-5.349-0.608-10.689-1.215-16.035-1.822v14.7
			c5.205,0.445,10.412,0.892,15.617,1.337c0.461,0.454,0.174,6.253,0.139,7.653c-6.086-0.362-12.178-0.729-18.269-1.093
			c-0.047,4.98-0.092,9.963-0.139,14.943c9.297,0.121,18.594,0.242,27.889,0.365c-0.047,2.389-0.092,4.778-0.141,7.168
			c-9.199,0.041-18.404,0.08-27.609,0.121c-0.047,4.778-0.092,9.559-0.139,14.336c9.156-0.445,18.314-0.892,27.473-1.336
			c-0.049,5.02-0.094,10.045-0.141,15.065c-0.293,1.731,0.529,4.276-0.279,5.588c-0.659,0.935-7.657,1.385-9.76,1.336
			c0.986,4.394,3.172,8.563,3.346,13.729c6.447-0.766,12.361-2.612,15.06-6.684c3.174-4.787,2.287-21.59,2.229-29.4
			c2.14-0.123,4.277-0.242,6.416-0.365c0.14-4.17,0.279-8.342,0.418-12.514h-6.555c0.047-1.459,0.094-2.916,0.142-4.373
			c1.256-0.424,1.889-0.842,2.092-2.188c-1.722-0.08-3.439-0.161-5.16-0.242h9.621c0.096-4.293,0.188-8.587,0.278-12.879
			c-5.157-0.323-10.317-0.647-15.477-0.972L505.458,137.743L505.458,137.743z M385.42,144.305
			c16.824,0.932,33.652,1.861,50.479,2.795v-13.852c-6.041-0.607-12.084-1.215-18.127-1.822v-14.701
			c1.006-0.858,1.7-0.268,2.37-1.58v-0.486l-14.502-3.158c-0.049,6.236-0.096,12.475-0.143,18.71
			c-6.691-0.647-13.385-1.296-20.078-1.943V144.305L385.42,144.305z M604.461,185.49c-1.068-1.336-2.137-2.674-3.205-4.01v-0.242
			c-0.141,2.309-0.279,4.617-0.418,6.926c-0.674,3.533-0.85,7.17-1.813,10.083c-0.144,0.082-0.281,0.163-0.419,0.244
			c-3.221-0.374-3.87-6.185-4.604-8.87c-2.393-8.752-4.313-19.34-4.463-29.4c6.508-0.688,13.018-1.377,19.521-2.066
			c-0.276-4.574-0.557-9.151-0.834-13.729l-0.139-0.121c-6.555,0.404-13.111,0.812-19.664,1.215c-0.139-8.666-0.279-17.333-0.418-26
			c0.65-0.121,1.303-0.243,1.951-0.364c0.231-0.364,0.467-0.729,0.697-1.094v-0.607c-5.111-1.094-10.226-2.188-15.339-3.279
			c0.027,10.936,0.859,21.645,0.837,32.195c-5.763,0.365-11.527,0.729-17.291,1.093c0.465,5.388,0.93,10.774,1.395,16.159
			c5.672-0.646,11.344-1.295,17.014-1.943h0.14c0.117,5.418,0.901,11.166,1.953,16.159c1.936,9.212,2.852,17.899,6.272,25.515
			c2.012,4.474,4.148,10.16,10.32,10.935c1.385,0.174,2.969-0.418,3.901-0.729c7.074-2.356,7.621-9.894,9.064-17.131
			c0.232-2.269,0.467-4.537,0.699-6.805C608.002,188.145,605.928,187.119,604.461,185.49z M600.698,142.604
			c2.371-1.822,4.742-3.646,7.112-5.468l1.394-1.214c-0.51-1.175-1.021-2.35-1.531-3.523c-1.707-3.828-3.693-7.229-5.721-10.69
			c-0.767-1.313-1.471-3.412-2.787-4.254c-2.648,1.822-5.301,3.646-7.949,5.468l-0.279,0.364c1.326,1.324,2.07,3.288,2.929,4.981
			C596.163,132.801,599.284,137.312,600.698,142.604z M408.43,191.08c-0.03-6.532-0.641-13.049-1.813-18.953
			c-0.604-4.374-1.209-8.749-1.813-13.121c-0.649-3.361-1.303-6.725-1.953-10.086h-0.696c-3.812,0.73-7.623,1.458-11.435,2.188
			c1.386,5.707,1.492,11.662,2.648,17.738c1.563,8.221,2.346,17.336,2.231,26.485C399.875,193.914,404.153,192.496,408.43,191.08z
			 M415.959,180.874c-0.697,3.28-1.396,6.562-2.092,9.841c3.438,1.014,6.879,2.025,10.317,3.037
			c1.164-5.143,2.324-10.287,3.486-15.43c0.742-4.535,1.486-9.072,2.23-13.607c0.42-2.996,0.838-5.994,1.258-8.99
			c1.24-0.381,1.965-0.582,2.367-1.701c-4.461-1.619-8.925-3.239-13.386-4.858c-0.559,4.899-1.116,9.801-1.674,14.7
			C417.631,169.534,416.795,175.205,415.959,180.874z M488.026,179.9c-3.254,2.634-6.509,5.266-9.763,7.897
			c3.279,5.233,7.451,10.604,9.064,17.132c3.346-2.875,6.695-5.752,10.039-8.625C496.565,192.38,490.731,182.197,488.026,179.9z
			 M383.747,215.379c17.803-2.471,35.609-4.941,53.408-7.412v-13.971c-17.799,1.699-35.605,3.4-53.408,5.102V215.379z"/>
	</g>
	<g>
		<path fill="#FF5501" d="M70.539,126.382h-4.087v15.685c0.971,0.205,2.35,0.256,4.139,0.256c5.364,0,10.166-2.095,10.166-7.97
			C80.757,128.527,75.699,126.382,70.539,126.382z M79.48,116.164v-0.051c0-4.599-3.373-6.591-8.686-6.591
			c-2.248,0-3.576,0.153-4.342,0.357v13.232h4.547C76.159,123.112,79.48,120.148,79.48,116.164z M190.339,120.098
			c-5.109,0-7.357,4.854-7.766,8.685h14.765C197.389,125.002,195.805,120.098,190.339,120.098z M229.881,124.287
			c0,2.4,1.583,3.524,5.159,5.059c3.404,1.392,5.721,3.079,6.647,5.633l-3.819-14.253c-0.918-0.33-2.026-0.577-3.289-0.577
			C231.516,120.148,229.881,122.039,229.881,124.287z M242.005,136.16c0.089,0.492,0.137,1.01,0.137,1.563
			c0,4.957-3.781,8.226-9.861,8.226c-2.759,0-5.414-0.768-7.305-1.891l1.175-3.271c1.481,0.869,3.883,1.893,6.284,1.893
			c3.729,0,5.569-1.994,5.569-4.497c0-2.606-1.482-4.037-5.161-5.519c-4.7-1.89-7.101-4.495-7.101-7.867
			c0-4.343,3.474-7.919,9.093-7.919c0.715,0,1.397,0.059,2.044,0.158L208.813,12.283L26.642,61.095l35.57,132.749v-43.305h17.262
			l12.121,23.389c3.213,5.826,7.07,14.186,9.733,20.771h0.183c-0.826-7.6-1.377-17.816-1.377-28.624v-15.536h14.508v65.27h-16.07
			l-12.396-23.728c-3.306-6.247-7.346-14.774-9.917-21.53h-0.368c0.459,7.6,0.826,17.563,0.826,29.215v16.043h-8.622l10.146,37.867
			l144.677-38.767c-7.333-3.628-7.498-11.995-7.498-16.157v-19.758h-6.336v-10.434l-14.415,22.676l14.784,24.57h-17.998
			l-4.131-8.443c-1.102-2.279-2.204-4.729-3.122-7.092h-0.275c-0.919,2.449-2.021,4.896-3.03,7.178l-3.674,8.357h-17.078
			l14.69-23.979l-14.507-23.559h17.813l3.948,7.854l3.306,7.346h0.275c1.01-2.365,2.02-5.066,3.122-7.516l3.489-7.684h23.138v-8.697
			l15.977-4.137v12.834h10.743v10.725h-10.743v17.898c0,5.573,1.929,7.6,5.785,7.6c1.836,0,2.847-0.084,4.223-0.422l0.047,5.873
			l18.959-5.082L242.005,136.16z M82.084,142.016c-2.604,2.555-6.794,3.678-12.669,3.678c-3.219,0-5.62-0.254-7.204-0.407V107.02
			c2.146-0.46,5.21-0.818,8.379-0.818c4.801,0,7.969,0.92,10.268,2.861c1.839,1.584,2.912,3.832,2.912,6.744
			c0,3.831-2.605,7.152-6.589,8.583v0.153c3.677,0.868,8.02,3.935,8.02,9.809C85.201,137.825,83.874,140.277,82.084,142.016z
			 M108.65,145.387l-0.205-4.395h-0.153c-1.277,2.197-4.138,5.007-8.889,5.007c-4.19,0-9.146-2.399-9.146-12.005v-16.45h4.24v15.684
			c0,5.415,1.583,9.196,6.233,9.196c3.32,0,7.254-2.657,7.254-7.562v-17.318h4.241v20.435c0,2.861,0.153,5.263,0.255,7.408H108.65z
			 M141.857,106.866c1.686,0,2.759,1.277,2.759,2.86c0,1.788-1.175,2.912-2.81,2.912c-1.634,0-2.758-1.276-2.758-2.912
			C139.048,108.144,140.223,106.866,141.857,106.866z M143.952,117.544v27.843h-4.24v-27.843H143.952z M125.203,132.665
			c-4.7-1.89-7.101-4.495-7.101-7.867c0-4.343,3.473-7.919,9.092-7.919c2.657,0,4.906,0.767,6.387,1.687l-1.226,3.219
			c-1.022-0.665-2.912-1.636-5.415-1.636c-3.066,0-4.7,1.891-4.7,4.139c0,2.4,1.583,3.524,5.16,5.059
			c4.496,1.839,7.101,4.188,7.101,8.378c0,4.957-3.78,8.226-9.86,8.226c-2.759,0-5.415-0.768-7.306-1.891l1.176-3.271
			c1.48,0.869,3.882,1.893,6.283,1.893c3.729,0,5.568-1.994,5.568-4.497C130.362,135.577,128.881,134.146,125.203,132.665z
			 M161.366,191.068c0,2.279-0.093,4.645-0.46,6.248h-29.199c0.367,5.658,5.876,8.273,12.58,8.273c4.683,0,8.723-0.761,12.395-1.857
			l2.112,10.303c-4.774,1.771-10.926,2.617-17.078,2.617c-16.253,0-25.434-8.951-25.434-23.813c0-13.594,8.63-25.498,24.056-25.498
			C152.643,167.342,161.366,174.941,161.366,191.068z M173.378,145.387h-4.24v-16.45c0-4.547-1.635-8.531-6.488-8.531
			c-3.627,0-7.306,3.063-7.306,7.919v17.062h-4.24v-20.69c0-2.861-0.103-4.955-0.204-7.203h3.78l0.256,4.547h0.102
			c1.379-2.707,4.598-5.16,8.94-5.16c3.474,0,9.4,2.096,9.4,11.547V145.387L173.378,145.387z M201.426,131.951h-18.954
			c0.051,7.713,4.444,10.626,9.451,10.626c3.475,0,5.568-0.718,7.305-1.431l0.818,3.064c-1.584,0.766-4.496,1.736-8.736,1.736
			c-8.123,0-12.977-5.722-12.977-14.049c0-8.736,4.905-15.021,12.415-15.021c8.583,0,10.779,7.868,10.779,12.722
			C201.527,130.57,201.477,131.286,201.426,131.951z M211.898,145.949c-2.76,0-5.416-0.768-7.305-1.891l1.175-3.271
			c1.48,0.869,3.882,1.893,6.283,1.893c3.729,0,5.568-1.994,5.568-4.497c0-2.606-1.481-4.037-5.159-5.519
			c-4.701-1.89-7.102-4.495-7.102-7.867c0-4.343,3.474-7.919,9.094-7.919c2.657,0,4.904,0.767,6.386,1.687l-1.226,3.219
			c-1.022-0.665-2.913-1.636-5.416-1.636c-3.066,0-4.701,1.891-4.701,4.139c0,2.4,1.584,3.524,5.161,5.059
			c4.496,1.839,7.101,4.188,7.101,8.378C221.757,142.68,217.977,145.949,211.898,145.949z M139.512,177.559
			c-5.509,0-7.622,5.573-7.897,9.541h14.967C146.582,182.877,145.114,177.559,139.512,177.559z"/>
		<g>
			<path fill="#FF5501" d="M83.129,261.938l1.877,3.309c0.412,0.729,0.793,1.398,1.116,2.087l0.043-0.013
				c-0.03-0.752,0-1.563,0.027-2.393l0.189-3.861l1.069-0.287l2.021,3.209c0.485,0.77,0.884,1.449,1.233,2.115l0.043-0.012
				c-0.073-0.738-0.083-1.525-0.072-2.41l0.056-3.781l1.257-0.336l-0.38,7.601l-1.157,0.312l-1.963-3.055
				c-0.455-0.714-0.845-1.354-1.237-2.132l-0.03,0.009c0.051,0.887,0.027,1.664-0.016,2.483l-0.238,3.626l-1.156,0.311l-3.983-6.432
				L83.129,261.938z"/>
			<path fill="#FF5501" d="M93.581,259.137l1.878,3.309c0.411,0.729,0.793,1.398,1.117,2.086l0.042-0.012
				c-0.03-0.75,0-1.563,0.026-2.393l0.189-3.861l1.069-0.287l2.021,3.211c0.485,0.769,0.885,1.449,1.233,2.115l0.043-0.013
				c-0.074-0.739-0.083-1.524-0.073-2.412l0.056-3.778l1.258-0.338l-0.381,7.6l-1.156,0.313l-1.964-3.054
				c-0.454-0.716-0.843-1.354-1.237-2.132l-0.028,0.008c0.051,0.887,0.027,1.665-0.017,2.482l-0.237,3.627l-1.155,0.31l-3.984-6.431
				L93.581,259.137z"/>
			<path fill="#FF5501" d="M104.032,256.337l1.878,3.308c0.411,0.729,0.792,1.398,1.116,2.086l0.043-0.012
				c-0.029-0.75,0-1.563,0.025-2.392l0.189-3.862l1.069-0.285l2.021,3.207c0.485,0.77,0.884,1.451,1.233,2.116l0.043-0.012
				c-0.075-0.739-0.084-1.524-0.073-2.411l0.056-3.779l1.258-0.338l-0.38,7.6l-1.157,0.312l-1.963-3.054
				c-0.456-0.715-0.844-1.354-1.237-2.131l-0.029,0.008c0.051,0.886,0.027,1.664-0.016,2.482l-0.237,3.627l-1.156,0.31l-3.984-6.431
				L104.032,256.337z"/>
			<path fill="#FF5501" d="M115.693,260.88c-0.491,0.134-0.943-0.165-1.083-0.687c-0.143-0.533,0.119-1.006,0.625-1.144
				c0.504-0.135,0.952,0.147,1.096,0.685c0.139,0.52-0.088,0.998-0.623,1.143L115.693,260.88z"/>
			<path fill="#FF5501" d="M114.997,249.9l1.257-0.338l1.177,4.393l0.028-0.008c0.24-0.9,0.913-1.621,2.041-1.924
				c1.734-0.465,3.35,0.648,3.905,2.777c0.669,2.502-0.572,4.165-2.133,4.584c-1.012,0.27-1.926,0.1-2.694-0.689l-0.043,0.013
				l0.251,1.174l-1.098,0.294c-0.099-0.486-0.26-1.201-0.426-1.822L114.997,249.9z M118.251,257.02
				c0.043,0.16,0.114,0.312,0.183,0.447c0.481,0.814,1.381,1.225,2.306,0.977c1.33-0.355,1.834-1.651,1.404-3.256
				c-0.375-1.401-1.419-2.408-2.778-2.043c-0.867,0.231-1.518,1.041-1.519,2.078c0.01,0.151,0.014,0.336,0.069,0.539L118.251,257.02
				z"/>
			<path fill="#FF5501" d="M124.243,252.951c-0.193-0.723-0.368-1.313-0.565-1.879l1.128-0.303l0.382,1.139l0.029-0.01
				c0.168-0.756,0.804-1.623,1.96-1.933c0.968-0.26,2.625-0.085,3.269,2.313l1.118,4.178l-1.27,0.341l-1.082-4.032
				c-0.301-1.127-0.974-1.955-2.171-1.634c-0.839,0.226-1.331,0.992-1.357,1.759c-0.015,0.174,0.014,0.399,0.072,0.616l1.126,4.205
				l-1.272,0.341L124.243,252.951z"/>
			<path fill="#FF5501" d="M133.104,252.545c0.49,1.711,1.778,2.125,3.05,1.783c0.91-0.243,1.417-0.551,1.84-0.879l0.46,0.852
				c-0.395,0.322-1.094,0.773-2.208,1.072c-2.153,0.577-3.823-0.51-4.388-2.62s0.232-4.104,2.27-4.649
				c2.284-0.61,3.428,1.233,3.773,2.521c0.069,0.261,0.095,0.47,0.116,0.604L133.104,252.545z M136.59,250.635
				c-0.204-0.813-0.887-1.979-2.318-1.596c-1.285,0.346-1.531,1.684-1.396,2.59L136.59,250.635z"/>
			<path fill="#FF5501" d="M138.829,247.014l1.399,1.234c0.365,0.322,0.678,0.625,1.014,0.953l0.044-0.012
				c0.118-0.48,0.252-0.902,0.383-1.342l0.584-1.752l1.373-0.369l-1.479,4.021l3.425,2.955l-1.446,0.388l-1.448-1.301
				c-0.382-0.332-0.719-0.66-1.076-1.015l-0.029,0.009c-0.115,0.495-0.264,0.924-0.413,1.411l-0.59,1.848l-1.401,0.376l1.53-4.235
				l-3.289-2.791L138.829,247.014z"/>
			<path fill="#FF5501" d="M145.837,243.339l0.449,1.677l1.82-0.488l0.26,0.97l-1.822,0.487l1.012,3.771
				c0.232,0.868,0.609,1.292,1.318,1.104c0.346-0.094,0.54-0.178,0.713-0.282l0.313,0.937c-0.218,0.168-0.585,0.358-1.076,0.49
				c-0.593,0.159-1.124,0.084-1.521-0.182c-0.462-0.278-0.758-0.864-0.979-1.688l-1.023-3.816l-1.083,0.291l-0.259-0.969
				l1.084-0.291l-0.345-1.285L145.837,243.339z"/>
			<path fill="#FF5501" d="M151.587,251.264c-0.492,0.131-0.943-0.166-1.083-0.687c-0.144-0.534,0.117-1.009,0.623-1.144
				c0.505-0.138,0.953,0.146,1.097,0.684c0.139,0.52-0.088,0.998-0.623,1.143L151.587,251.264z"/>
			<path fill="#FF5501" d="M158.556,248.945c-0.285,0.264-0.956,0.705-1.896,0.957c-2.11,0.566-3.871-0.512-4.443-2.65
				c-0.578-2.152,0.479-4.109,2.763-4.721c0.751-0.201,1.466-0.191,1.859-0.11l-0.026,1.06c-0.35-0.092-0.869-0.123-1.563,0.063
				c-1.604,0.43-2.154,1.848-1.762,3.309c0.433,1.617,1.741,2.334,3.128,1.965c0.723-0.194,1.149-0.51,1.468-0.766L158.556,248.945z
				"/>
			<path fill="#FF5501" d="M165.045,243.676c0.693,2.586-0.796,4.193-2.487,4.646c-1.894,0.508-3.724-0.489-4.317-2.699
				c-0.627-2.342,0.536-4.123,2.474-4.643C162.723,240.441,164.472,241.537,165.045,243.676z M159.515,245.234
				c0.411,1.533,1.602,2.453,2.845,2.119c1.213-0.326,1.817-1.713,1.396-3.287c-0.318-1.187-1.313-2.528-2.815-2.127
				C159.437,242.344,159.159,243.904,159.515,245.234z"/>
			<path fill="#FF5501" d="M165.877,241.795c-0.194-0.723-0.367-1.311-0.566-1.877l1.113-0.299l0.36,1.111l0.042-0.01
				c0.212-0.771,0.697-1.566,1.853-1.875c0.954-0.257,1.831,0.129,2.354,0.868l0.029-0.008c0.112-0.446,0.307-0.823,0.537-1.119
				c0.335-0.429,0.75-0.726,1.416-0.903c0.924-0.248,2.459-0.011,3.11,2.418l1.104,4.119l-1.243,0.334l-1.061-3.961
				c-0.36-1.345-1.069-2.021-2.095-1.746c-0.722,0.192-1.142,0.879-1.192,1.557c-0.011,0.189,0.007,0.435,0.069,0.664l1.158,4.322
				l-1.243,0.334l-1.123-4.193c-0.298-1.111-1.006-1.789-1.976-1.529c-0.793,0.212-1.201,1.004-1.233,1.693
				c-0.022,0.207,0.006,0.432,0.064,0.648l1.131,4.221l-1.242,0.332L165.877,241.795z"/>
			<path fill="#FF5501" d="M179.516,243.779c-0.492,0.131-0.942-0.166-1.082-0.686c-0.143-0.535,0.117-1.009,0.624-1.146
				c0.504-0.135,0.953,0.148,1.096,0.685c0.14,0.521-0.088,0.999-0.624,1.144L179.516,243.779z"/>
			<path fill="#FF5501" d="M180.777,233.977l0.45,1.676l1.821-0.487l0.259,0.97l-1.822,0.488l1.01,3.771
				c0.233,0.867,0.611,1.291,1.319,1.103c0.348-0.093,0.542-0.177,0.714-0.283l0.314,0.937c-0.219,0.17-0.586,0.358-1.077,0.492
				c-0.593,0.157-1.124,0.084-1.521-0.183c-0.46-0.278-0.757-0.864-0.978-1.688l-1.023-3.814l-1.084,0.29l-0.259-0.97l1.084-0.291
				l-0.345-1.284L180.777,233.977z"/>
			<path fill="#FF5501" d="M184.755,234.707l1.876,3.307c0.412,0.729,0.793,1.399,1.117,2.088l0.043-0.012
				c-0.03-0.752-0.001-1.564,0.027-2.393l0.188-3.861l1.069-0.287l2.021,3.209c0.484,0.77,0.885,1.45,1.233,2.115l0.043-0.01
				c-0.074-0.741-0.084-1.526-0.073-2.413l0.056-3.78l1.257-0.337l-0.379,7.601l-1.157,0.311l-1.963-3.053
				c-0.455-0.715-0.843-1.354-1.238-2.131l-0.028,0.008c0.051,0.886,0.027,1.664-0.017,2.482l-0.236,3.625l-1.156,0.311l-3.984-6.43
				L184.755,234.707z"/>
		</g>
	</g>
</g>
</svg>
